#!OML:ASF H:\Terrain\Patient Classification 1\Walking\liu\liu.ASF
:FULLY-SPECIFIED
:DEGREES
194
root 8.132470 16.636700 -10.254800 7.021930 4.129570 -2.840120
lowerback -42.403599 16.733400 10.232901
upperback -15.085699 21.575001 33.458401
thorax 7.345070 10.866300 29.676300
lowerneck -135.362991 -68.477402 -159.522995
upperneck 135.557007 -88.516907 162.173996
head 78.816696 -37.567501 70.849297
rclavicle 0.000000 0.000000
rhumerus -371.029999 89.416107 -783.240967
rradius 484.929016
rwrist -267.402008
rhand -363.811981 -241.685013
rfingers 71.250198
rthumb -94.776398 -539.354004
lclavicle 0.000000 0.000000
lhumerus -492.625000 -99.635002 959.057983
lradius 308.251984
lwrist 141.061996
lhand -124.971001 -249.074005
lfingers 71.250198
lthumb 135.778992 46.298100
rfemur -100.032997 57.305698 288.848999
rtibia 242.485992
rfoot -210.561005 11.809200
rtoes -101.860001
lfemur -391.260986 59.495201 -198.089005
ltibia 449.373016
lfoot -148.039001 98.604202
ltoes -125.941002
195
root 8.138540 16.624399 -10.125900 6.993900 4.117590 -2.853290
lowerback -44.208103 14.652600 7.890990
upperback -8.556420 18.614399 33.688099
thorax 15.111700 9.311610 31.280100
lowerneck -159.656006 -69.704300 -149.722000
upperneck 141.842010 -88.604202 156.233002
head 84.486504 -36.469799 66.831001
rclavicle -0.000000 -0.000000
rhumerus -354.464996 89.745705 -782.854980
rradius 489.115967
rwrist -256.537994
rhand -349.192017 -268.127991
rfingers 71.250198
rthumb -80.667892 -566.388000
lclavicle -0.000000 -0.000000
lhumerus -480.119019 -100.092003 957.160034
lradius 302.593018
lwrist 137.203003
lhand -129.768997 -248.733994
lfingers 71.250198
lthumb 131.154999 46.942101
rfemur -91.299103 55.463799 289.852020
rtibia 235.578003
rfoot -207.310013 13.995000
rtoes -97.451004
lfemur -394.934021 54.688801 -197.938004
ltibia 430.500977
lfoot -146.985992 94.900398
ltoes -118.242996
196
root 8.141820 16.623301 -9.996100 6.940140 3.990080 -3.187970
lowerback -42.364601 15.018500 10.116400
upperback -10.993800 19.126699 35.044102
thorax 11.576700 9.605490 31.348600
lowerneck -152.306992 -68.862000 -150.059998
upperneck 138.893005 -87.724899 154.725006
head 81.972107 -36.536900 66.490005
rclavicle -0.000000 0.000000
rhumerus -356.640991 90.086807 -784.231018
rradius 490.979980
rwrist -256.098999
rhand -345.733978 -276.721008
rfingers 71.250198
rthumb -77.330299 -575.106995
lclavicle -0.000000 0.000000
lhumerus -487.369019 -100.878998 961.025024
lradius 300.625000
lwrist 129.720001
lhand -135.569000 -246.595993
lfingers 71.250198
lthumb 125.563004 49.430500
rfemur -82.874207 54.427799 294.332001
rtibia 229.156006
rfoot -204.227005 15.182800
rtoes -89.529106
lfemur -398.184021 51.503300 -193.936996
ltibia 411.498993
lfoot -145.641998 93.459595
ltoes -118.851006
197
root 8.147330 16.614000 -9.868080 6.915680 3.814220 -3.592560
lowerback -45.015503 15.675900 12.906600
upperback -3.131180 19.468201 36.030602
thorax 21.192600 9.710609 31.084801
lowerneck -179.421005 -72.387299 -143.503998
upperneck 144.778992 -90.193192 149.266998
head 88.588799 -36.630501 62.817001
rclavicle 0.000000 0.000000
rhumerus -342.836975 103.832001 -794.495972
rradius 511.853973
rwrist -308.828003
rhand -398.007019 -353.135010
rfingers 71.250198
rthumb -127.756996 -649.026001
lclavicle 0.000000 0.000000
lhumerus -472.268005 -103.181000 959.573975
lradius 297.023987
lwrist 126.104004
lhand -137.356003 -244.862000
lfingers 71.250198
lthumb 123.839996 51.269600
rfemur -74.614502 55.073601 299.360992
rtibia 221.585999
rfoot -202.390991 16.046700
rtoes -83.719704
lfemur -401.375000 49.377499 -188.932983
ltibia 392.683990
lfoot -144.975006 90.849106
ltoes -116.385002
198
root 8.158670 16.609301 -9.730640 6.864080 3.591860 -3.464540
lowerback -43.930099 16.023500 12.054000
upperback -8.827040 20.241301 35.321400
thorax 14.684800 10.143400 30.703800
lowerneck -159.208008 -68.770599 -146.147003
upperneck 142.903000 -87.229797 150.606003
head 84.044197 -36.123001 64.416000
rclavicle -0.000000 -0.000000
rhumerus -353.124023 95.748901 -789.962036
rradius 503.681000
rwrist -270.200012
rhand -356.712982 -312.531006
rfingers 71.250198
rthumb -87.925797 -610.499023
lclavicle -0.000000 -0.000000
lhumerus -485.574982 -98.157700 959.049988
lradius 295.628998
lwrist 118.727997
lhand -131.518997 -242.343994
lfingers 71.250198
lthumb 129.468002 53.439899
rfemur -63.215500 53.898300 297.777985
rtibia 211.678009
rfoot -201.145004 22.688000
rtoes -74.915802
lfemur -402.583984 46.758801 -189.699005
ltibia 374.033020
lfoot -145.970001 87.346603
ltoes -118.301003
